<?xml version="1.0" encoding="UTF-8" standalone="no"?>
<svg
   id="svg"
   version="1.1"
   width="400"
   height="400"
   viewBox="0, 0, 400,400"
   sodipodi:docname="image2vector.svg"
   inkscape:version="1.3.2 (091e20e, 2023-11-25)"
   xmlns:inkscape="http://www.inkscape.org/namespaces/inkscape"
   xmlns:sodipodi="http://sodipodi.sourceforge.net/DTD/sodipodi-0.dtd"
   xmlns="http://www.w3.org/2000/svg"
   xmlns:svg="http://www.w3.org/2000/svg">
  <defs
     id="defs1" />
  <sodipodi:namedview
     id="namedview1"
     pagecolor="#ffffff"
     bordercolor="#000000"
     borderopacity="0.25"
     inkscape:showpageshadow="2"
     inkscape:pageopacity="0.0"
     inkscape:pagecheckerboard="0"
     inkscape:deskcolor="#d1d1d1"
     inkscape:zoom="1.9365054"
     inkscape:cx="170.41006"
     inkscape:cy="164.21333"
     inkscape:window-width="1920"
     inkscape:window-height="947"
     inkscape:window-x="318"
     inkscape:window-y="25"
     inkscape:window-maximized="0"
     inkscape:current-layer="svg" />
  <path
     style="fill:#90c557;fill-opacity:1;stroke:#000000;stroke-width:0;stroke-dasharray:none"
     d="m 284.66512,127.26719 c -0.13337,-0.11723 -2.20668,-0.35886 -4.60737,-0.53695 -2.40069,-0.17809 -5.80529,-0.59007 -7.5658,-0.91551 -1.7605,-0.32543 -6.5966,-0.87112 -10.74691,-1.21264 -7.6575,-0.6301 -9.04054,-1.06209 -9.04054,-2.82382 0,-1.73706 2.29144,-9.92213 3.85157,-13.75794 0.83225,-2.04616 2.01426,-5.25285 2.62672,-7.12598 0.61245,-1.873128 1.73206,-4.448724 2.48801,-5.723534 0.75596,-1.27481 2.35968,-4.24952 3.56384,-6.61048 1.20416,-2.36095 3.37913,-6.09555 4.83326,-8.29911 2.85836,-4.33147 12.07166,-15.73002 13.33309,-16.49547 0.42563,-0.25829 1.62972,-1.28852 2.67576,-2.28941 2.60063,-2.48842 5.03674,-4.49599 6.84849,-5.64377 0.83533,-0.5292 1.8829,-1.31416 2.32793,-1.74436 0.44502,-0.43019 2.24955,-1.687348 4.01005,-2.793686 2.73869,-1.72105 4.52801,-2.700194 10.47572,-5.732471 4.154,-2.117809 15.2505,-6.085611 18.2608,-6.529562 2.68646,-0.396193 2.69062,-0.394175 2.69062,1.304204 0,1.431705 -0.52981,2.052663 -3.34641,3.922143 -1.84052,1.221623 -4.1147,2.600959 -5.05374,3.065192 -0.93903,0.464233 -5.75556,4.716751 -10.70338,9.45004 -8.72389,8.34562 -16.32572,17.39799 -20.20425,24.0595 -0.91642,1.57397 -1.83025,2.99054 -2.03073,3.14794 -0.20049,0.1574 -0.76171,1.05885 -1.24715,2.00323 -0.48545,0.94439 -2.21737,4.29265 -3.84872,7.44059 -3.4725,6.700744 -5.95181,13.195514 -5.92568,15.522774 0.0177,1.57921 0.0528,1.60015 0.84086,0.5031 0.45229,-0.62959 1.23246,-1.65982 1.7337,-2.28941 0.50125,-0.62958 2.82382,-3.72029 5.16126,-6.86823 7.40614,-9.974154 19.13447,-20.372834 27.7467,-24.601044 1.7605,-0.86432 3.59375,-1.89798 4.07389,-2.29702 1.35688,-1.12768 14.40568,-5.29438 18.62349,-5.94679 7.86886,-1.21715 7.64727,-1.23806 7.44998,0.70286 -0.1406,1.38315 -0.68694,1.98864 -2.76783,3.0675 -3.99385,2.07065 -15.11094,9.50966 -18.35472,12.28207 -5.79846,4.95585 -10.78991,10.24807 -16.37794,17.364774 -2.30298,2.93298 -4.9086,7.77231 -4.5188,8.39259 0.513,0.8163 2.8192,0.5345 7.28727,-0.89047 5.43915,-1.73467 13.43158,-2.77895 19.42526,-2.53806 4.53752,0.18236 4.66037,0.22534 4.83317,1.69119 0.14591,1.23786 -0.11162,1.57199 -1.45497,1.88775 -3.77325,0.88692 -14.59051,4.47896 -16.47284,5.47006 -1.12033,0.58988 -2.9083,1.4724 -3.97327,1.96116 -1.06498,0.48876 -3.10778,1.66617 -4.53956,2.61647 -1.43178,0.95031 -2.74632,1.72782 -2.92123,1.72782 -0.1749,0 -1.53672,1.0642 -3.02624,2.36488 -3.74841,3.27317 -5.64315,3.931 -11.3223,3.931 -2.67771,0 -4.97769,-0.0959 -5.11106,-0.21312 z"
     id="path5" />
  <path
     style="fill:#53b4af;fill-opacity:1;stroke:#000000;stroke-width:0;stroke-dasharray:none"
     d="m 227.5097,122.23408 c -13.2914,-1.05278 -14.16047,-1.22636 -14.82621,-2.96123 -0.48442,-1.26239 0.97793,-4.80057 5.72424,-13.84986 10.64836,-20.302128 13.01456,-25.843608 15.09825,-35.359118 0.83471,-3.81182 0.82946,-3.88112 -0.36475,-4.82197 -0.6664,-0.52501 -1.72351,-0.96009 -2.34913,-0.96685 -2.25981,-0.0244 -3.06883,1.30482 -4.71634,7.74896 -1.36203,5.32751 -2.74955,8.59666 -8.7822,20.69179 -6.14005,12.310478 -10.93797,22.856938 -11.99332,26.362928 -0.32587,1.08255 -1.9565,1.73887 -4.17175,1.67909 -0.83564,-0.0226 -3.39178,-0.0636 -5.68033,-0.0912 -2.93155,-0.0354 -4.24494,-0.26902 -4.44514,-0.79073 -0.53312,-1.38928 1.99164,-6.82934 6.3509,-13.68423 2.39449,-3.76529 5.00026,-7.625962 5.79061,-8.57928 0.79035,-0.953308 1.44201,-1.947778 1.44814,-2.209938 0.006,-0.26217 1.4959,-2.46561 3.3106,-4.89655 4.42699,-5.93033 7.88312,-12.80713 9.30185,-18.50829 1.58803,-6.38146 1.62974,-9.61676 0.16664,-12.92436 -1.51587,-3.42687 -1.53242,-6.58715 -0.0454,-8.67543 1.12418,-1.57877 1.22435,-1.60388 6.21547,-1.55801 5.52472,0.0508 8.15031,0.37119 16.95133,2.06865 7.49464,1.44551 8.61235,1.90489 9.94243,4.08643 1.39843,2.29364 1.38605,3.16207 -0.0899,6.30198 -0.84794,1.80391 -1.72856,2.76891 -3.01875,3.30798 -2.01531,0.84205 -2.66056,1.7914 -3.82455,5.62701 -1.64782,5.42994 -0.42306,16.27755 3.50546,31.047528 2.12245,7.97974 3.43004,14.92642 3.43004,18.2224 v 3.32456 l -8.70166,-0.0773 c -4.78591,-0.0425 -11.18784,-0.27424 -14.22652,-0.51492 z"
     id="path6"
     inkscape:label="path6" />
  <path
     style="fill:#a25439;fill-opacity:1;stroke:#000000;stroke-width:0;stroke-dasharray:none"
     d="m 100.08162,122.82301 c -0.764809,-0.61031 -1.823419,-2.1799 -5.721855,-8.48373 -3.254629,-5.2628 -8.308849,-13.75067 -10.257519,-17.226095 -1.03744,-1.85028 -2.41651,-4.08133 -3.06459,-4.95791 -3.42663,-4.63476 -2.56779,-12.97746 1.95227,-18.96423 2.75524,-3.64929 2.73461,-5.25467 -0.0863,-6.71311 -2.92511,-1.51234 -2.67335,-3.02933 0.87998,-5.30237 4.56969,-2.92319 6.67258,-2.15523 6.40734,2.33995 -0.18647,3.1603 0.40584,3.42647 5.192327,2.33326 4.603878,-1.0515 6.746157,-0.88125 10.249167,0.81453 2.67645,1.29565 7.02828,5.52197 8.9401,8.68227 0.71094,1.17519 3.61931,5.68976 6.46305,10.03237 4.8658,7.43045 6.42173,9.85759 9.78509,15.264065 0.99318,1.59651 1.80564,4.3226 2.85074,9.56531 2.1577,10.82394 2.13,10.61359 1.45291,11.03206 -0.69608,0.4302 -25.11718,2.18612 -30.63414,2.20265 -2.08462,0.006 -3.954,-0.25624 -4.40862,-0.61902 z"
     id="path11" />
  <path
     style="fill:#a89374;fill-opacity:1;stroke:#000000;stroke-width:0;stroke-dasharray:none;stroke-opacity:1"
     d="m 98.741777,379.78459 -4.908573,-0.28881 -0.32994,-1.55113 c -0.52107,-2.44968 -0.49165,-23.28244 0.0584,-41.3635 0.49905,-16.40397 1.436425,-29.89014 2.839093,-40.84645 0.40047,-3.12811 0.87262,-7.66517 1.04923,-10.08235 0.1766,-2.41718 0.56184,-5.79089 0.8561,-7.49713 0.54888,-3.18273 1.27429,-7.87592 3.036833,-19.64766 0.55352,-3.69686 1.45777,-9.1646 2.00943,-12.15053 0.55166,-2.98593 1.37779,-7.52298 1.83584,-10.08235 1.25943,-7.03716 1.65576,-8.01418 3.25093,-8.01418 0.74128,0 2.29376,0.44565 3.44994,0.99033 3.51358,1.65525 12.28252,5.00396 14.47674,5.52842 0.83417,0.19938 2.11386,0.67415 2.84375,1.05504 0.72988,0.3809 1.69437,0.69397 2.14329,0.69573 0.44892,0.002 3.28353,0.79444 6.29913,1.76153 3.0156,0.9671 6.48735,1.90913 7.715,2.09342 2.24945,0.33767 9.1235,1.8362 14.38261,3.1354 1.56406,0.38638 4.47243,0.85492 6.46305,1.0412 1.99062,0.18628 5.71333,0.65446 8.2727,1.04039 13.44126,2.02683 48.23442,2.3558 52.61248,0.58667 3.66828,-1.48231 10.65841,-9.16918 -5.32258,-10.55993 l -10.41233,-0.90613 c 7.87167,0.0345 -14.95054,-2.1324 23.85249,-0.77459 6.40114,0.22399 7.56889,-0.26624 9.71714,-2.22291 0.91781,-0.83596 1.16335,-1.61993 1.16335,-3.71439 0,-3.57132 -0.72698,-4.41599 -4.16143,-4.83514 -2.68783,-0.32803 -31.34199,-1.68396 -29.82752,-1.94865 l 0.61821,-0.83006 30.19102,-1.05651 c 6.26333,-0.21918 8.64238,-2.11317 9.23177,-6.50742 0.23759,-1.77137 0.0394,-2.53032 -1.11671,-4.2774 l -1.40556,-2.12393 -3.7038,0.30679 c -2.0371,0.16874 -7.96722,0.45967 -13.17806,0.64652 l -21.8677,1.11432 -0.60713,-0.97873 c -0.9088,-1.46503 13.42305,-3.3278 17.47186,-4.49804 2.27499,-0.65754 6.18413,-1.651 8.68698,-2.20768 7.3799,-1.64141 9.66807,-3.73933 9.66807,-8.86423 0,-1.54322 -0.35374,-2.38453 -1.47334,-3.50413 -2.8801,-2.88011 -2.48958,-2.94759 -30.32485,5.24006 -14.78085,4.34774 -14.2187,4.2677 -14.2187,2.02444 0,-1.00082 0.40087,-1.80381 1.16335,-2.33034 0.63984,-0.44184 2.6757,-1.80693 4.52413,-3.03353 3.71602,-2.46591 3.97061,-2.99404 4.07518,-8.45366 0.0556,-2.90299 -0.0684,-3.29622 -1.3607,-4.31596 -1.16154,-0.91654 -1.84787,-1.06583 -3.74857,-0.81542 -3.02969,0.39915 -8.70204,3.24647 -12.92609,6.48844 -8.26611,6.34428 -14.92218,10.10436 -20.94027,11.82936 -15.52886,4.45112 -31.28527,2.46902 -47.30949,-5.95137 -6.65068,-3.49479 -8.92202,-5.13993 -15.45854,-11.19668 -7.69172,-7.12715 -12.189133,-13.26455 -17.538416,-23.93382 -3.20375,-6.38996 -9.17242,-24.52963 -8.29554,-25.21141 0.3394,-0.26389 15.000183,-1.37695 24.747096,-1.87882 5.26092,-0.27088 14.33504,-0.74714 20.1647,-1.05836 16.42986,-0.8771 60.53914,-1.19448 74.84208,-0.53851 6.89607,0.31628 18.18054,0.81016 25.07661,1.09752 6.89607,0.28736 14.74867,0.75111 17.45023,1.03055 2.70155,0.27945 9.2163,0.74228 14.47722,1.02852 5.26092,0.28624 11.194,0.76627 13.18461,1.06673 1.99062,0.30047 7.22569,0.87513 11.63349,1.27703 14.29788,1.30368 23.99903,2.27701 26.04063,2.6127 l 1.99809,0.32854 -0.257,11.96582 c -0.27718,12.90522 -1.49143,31.61601 -2.67234,41.17879 -0.40385,3.2703 -0.87136,7.45835 -1.03893,9.30678 -0.59254,6.53665 -4.1764,24.77777 -6.50139,33.0908 -4.14416,14.81746 -9.77364,27.67127 -15.98833,36.50623 -2.94795,4.19088 -8.76091,10.33439 -11.32312,11.967 -6.25415,3.98507 -8.46192,5.22397 -13.26606,7.44435 -7.99039,3.69301 -8.50423,3.90043 -13.45334,5.43065 -4.33378,1.33996 -5.26336,1.43685 -13.94997,1.4541 -8.90678,0.0177 -9.49568,-0.0453 -13.70166,-1.46557 -2.41718,-0.81622 -10.96078,-4.82978 -18.98577,-8.919 -8.025,-4.08923 -15.05377,-7.43496 -15.6195,-7.43496 -1.53348,0 -5.48946,2.56538 -6.44164,4.17729 -0.97339,1.64783 -1.07201,3.69847 -0.25454,5.29275 0.73938,1.44198 3.61291,4.49014 4.23288,4.49014 0.26002,0 2.19207,0.84972 4.29345,1.88828 3.41314,1.68687 3.82068,2.04535 3.82068,3.36079 0,0.80987 -0.17451,1.46784 -0.38779,1.46216 -1.84425,-0.0492 -23.66544,-4.37812 -31.4104,-6.23131 -4.12206,-0.9863 -9.09295,-1.2724 -12.00131,-0.69073 -1.68493,0.33699 -4.28704,3.74723 -4.28363,5.614 0.003,1.80252 1.99288,4.44276 3.97064,5.26911 1.03497,0.43244 4.34542,1.22499 7.35655,1.76122 6.13897,1.09324 23.92683,2.65133 24.95372,3.04538 0.54628,0.20963 1.01411,2.59786 0.54515,2.80426 -0.0711,0.0313 -15.56458,0.6026 -23.38486,0.7962 -12.65482,0.31329 -14.40112,0.46005 -15.87718,1.33425 -2.2501,1.33264 -3.01885,3.33836 -2.42783,6.33437 0.66078,3.34963 2.20493,4.35898 7.15442,4.67662 3.71,0.23809 35.41202,-3.42901 35.41202,-2.25711 0,0.85645 -31.93643,5.16553 -32.92191,5.5855 -2.65257,1.1304 -3.23153,1.95419 -3.23153,4.59813 0,5.62523 1.49688,6.44271 10.88918,5.94687 6.21483,-0.32809 30.95966,-4.0314 30.94439,-3.17323 -0.009,0.50811 -25.27407,6.02303 -25.69158,6.57503 -0.88621,1.17167 -0.36175,4.47954 0.4402,6.23964 1.41419,3.10379 5.87315,3.75286 18.70068,2.72215 5.19278,-0.41725 12.69879,-1.01527 16.68002,-1.32894 3.98124,-0.31367 10.61233,-1.14725 14.73575,-1.85238 4.12342,-0.70513 9.56884,-1.63026 12.10094,-2.05583 2.53209,-0.42557 6.37114,-1.22188 8.53122,-1.76958 2.16008,-0.5477 5.32343,-1.35006 7.02968,-1.78303 8.41117,-2.13437 23.92045,-7.41331 32.31523,-10.99924 9.26308,-3.95683 20.58929,-9.71676 25.01951,-12.72362 1.10608,-0.75072 2.6701,-1.36495 3.47559,-1.36495 1.34267,0 1.53313,0.2474 2.2887,2.973 0.45329,1.63515 1.0444,3.55468 1.31357,4.26561 0.26918,0.71094 0.81161,3.03763 1.2054,5.17044 1.28438,6.95628 1.87831,10.02381 2.65294,13.70165 1.35896,6.45222 2.41768,18.35518 2.67165,30.03662 l 0.24836,11.42303 -5.0899,0.33703 c -6.10629,0.40434 -198.92966,0.26917 -205.958043,-0.14437 z"
     id="path12"
     inkscape:label="path12"
     sodipodi:nodetypes="ccsssssssssssscssssssscssssscssscsscssssssssssssssssssssssssssscssssssssssssssssscsscssssssssssssssssssssssssssssscssc" />
  <path
     style="fill:#e7b36f;fill-opacity:1;stroke:#e7b36f;stroke-width:0;stroke-dasharray:none;stroke-opacity:1"
     d="m 181.30572,121.03674 c -1.75376,-0.62379 -2.52018,-0.67565 -3.35812,-0.22719 -0.76228,0.40795 -6.6566,0.53694 -19.78558,0.43296 -16.39047,-0.12981 -18.80268,-0.25101 -19.53258,-0.9814 -0.458,-0.45831 -1.25614,-2.66589 -1.77363,-4.90573 -1.31249,-5.68078 -5.96273,-23.610823 -10.56519,-40.73643 -4.79815,-17.853815 -5.91929,-22.988726 -6.31415,-28.919225 -0.85939,-12.907594 4.33169,-22.389145 14.13076,-25.809931 2.21551,-0.773418 4.50629,-1.629922 5.09063,-1.903343 0.99986,-0.467845 5.23657,-0.33779 6.94167,0.213091 2.06377,0.666758 8.06439,2.44309 8.52051,2.522278 0.28401,0.04931 0.79947,0.46128 1.14546,0.91549 0.34599,0.454209 0.63646,0.654549 0.64549,0.4452 0.009,-0.209349 1.35259,0.967099 2.98569,2.614329 3.79232,3.825139 6.72121,7.108512 5.87395,6.584879 -0.51393,-0.317628 -0.50923,-0.169277 0.0216,0.680681 0.3733,0.597754 0.86893,1.086825 1.10139,1.086825 0.23246,0 0.27903,0.232378 0.1035,0.516395 -0.17553,0.284016 -0.0593,0.516394 0.2582,0.516394 0.31754,0 0.43373,0.232376 0.25819,0.516393 -0.17553,0.284017 -0.0343,0.516394 0.31379,0.516394 0.34812,0 0.48003,0.152902 0.29315,0.339783 -0.18688,0.18688 -0.11404,0.611778 0.16186,0.944218 0.2759,0.33244 0.60518,1.167142 0.73174,1.854892 0.12655,0.687752 0.26514,1.250457 0.30798,1.250457 0.0428,0 0.17629,0.40666 0.29657,0.90369 0.39713,1.64107 0.57029,2.179788 1.17582,3.658092 0.32969,0.80488 0.46787,1.676295 0.30707,1.936478 -0.1608,0.260183 -0.0536,0.473061 0.2383,0.473061 0.29186,0 0.3969,0.348566 0.23342,0.774591 -0.16348,0.426025 -0.0243,0.774591 0.30921,0.774591 0.37144,0 0.47942,0.400209 0.27864,1.032788 -0.1838,0.579125 -0.0928,1.032789 0.20719,1.032789 0.29425,0 0.41025,0.32506 0.25779,0.722357 -0.15245,0.397297 -0.0252,0.878109 0.28283,1.06847 0.30802,0.190362 0.42633,0.562433 0.26292,0.826825 -0.1634,0.264392 -0.0261,0.480712 0.30503,0.480712 0.33116,0 0.47122,0.341125 0.31122,0.758054 -0.15999,0.416929 -0.0649,0.897741 0.21138,1.06847 0.27624,0.170729 0.38062,0.507237 0.23195,0.747795 -0.14868,0.240558 -0.005,1.095916 0.31902,1.900796 0.32414,0.80488 0.67644,2.139234 0.78289,2.965232 0.10645,0.825997 0.42183,1.776888 0.70086,2.113089 0.27902,0.336202 0.36003,0.758562 0.18001,0.938579 -0.18002,0.180017 -0.0715,0.635483 0.24106,1.012146 0.66681,0.803459 0.23263,2.954875 -0.59632,2.954875 -0.31409,0 -0.0645,0.354802 0.5546,0.788451 0.6206,0.434685 1.52541,2.056571 2.01659,3.614759 0.49,1.55447 1.09651,2.826308 1.3478,2.826308 0.25129,0 0.30938,0.464754 0.12909,1.032788 -0.19536,0.615536 -0.0928,1.032788 0.25388,1.032788 0.31991,0 0.43176,0.242556 0.24854,0.539012 -0.18322,0.296462 -0.10347,0.819311 0.17723,1.161887 0.48225,0.58856 1.81924,4.672076 1.89468,5.786816 0.0192,0.284017 0.2168,0.806866 0.43907,1.161887 0.22226,0.355021 0.28611,0.836439 0.14187,1.069813 -0.14423,0.23338 0.0636,1.052329 0.46179,1.819897 0.39822,0.767568 0.71856,1.448036 0.71186,1.512157 -0.007,0.06412 0.24603,0.795691 0.5616,1.625717 0.31558,0.830026 0.45825,1.810184 0.31705,2.178135 -0.14119,0.367952 -0.0307,0.808694 0.24555,0.979419 0.27625,0.17073 0.36857,0.526738 0.20516,0.791131 -0.1634,0.264389 -0.0408,0.480712 0.27242,0.480712 0.31323,0 0.52205,0.290471 0.46405,0.645492 -0.058,0.355021 0.16151,1.292595 0.48779,2.083489 0.32628,0.790894 0.55681,1.604212 0.51229,1.807372 -0.17322,0.79044 0.74635,4.24234 1.13014,4.24234 0.59053,0 1.54472,6.01729 1.54472,9.74127 0,4.09666 -1.06121,6.78075 -2.68472,6.79039 -0.65353,0.004 -1.65299,0.11467 -2.22103,0.2462 -0.56803,0.13153 -2.05536,-0.12458 -3.30517,-0.56912 z m -34.64979,-5.91134 c 0,-3.24621 -0.49779,-3.87823 -1.43482,-1.82168 -0.31229,0.6854 -1.03487,1.39443 -1.60572,1.57561 -0.71384,0.22656 -0.93424,0.60333 -0.70586,1.20668 0.49608,1.3106 1.60398,2.27668 2.19325,1.91249 0.2862,-0.17689 0.52036,-0.0618 0.52036,0.25574 0,0.31755 0.23238,0.43373 0.51639,0.2582 0.28402,-0.17553 0.5164,-1.6997 0.5164,-3.38704 z m 9.5787,0.7677 c 1.81986,-1.29863 3.54624,-2.21442 3.83639,-2.0351 0.29015,0.17933 0.52755,0.0662 0.52755,-0.2513 0,-0.31754 0.1883,-0.46096 0.41846,-0.31872 0.37627,0.23255 3.78885,-0.39857 5.77827,-1.06863 0.42602,-0.14349 2.78779,-0.3435 5.24837,-0.44446 5.35359,-0.21968 8.18478,-1.33595 8.74237,-3.44693 0.34475,-1.30517 0.2362,-1.43108 -1.51667,-1.75931 -1.0384,-0.19445 -2.61281,-0.65605 -3.4987,-1.02579 -2.94395,-1.2287 -8.0591,-1.45354 -11.11429,-0.48853 -3.9632,1.25181 -8.15165,4.24942 -9.89475,7.08152 -1.33566,2.17011 -2.67548,6.11839 -2.07623,6.11839 0.13221,0 1.72936,-1.06251 3.54923,-2.36114 z m -9.09133,-14.10924 c 0.3863,-0.7218 0.32982,-1.13948 -0.21525,-1.59185 -0.76704,-0.636588 -2.85409,-0.272868 -2.85409,0.4974 0,2.06422 2.14164,2.82787 3.06934,1.09445 z m -5.2382,-2.739458 c 0.99435,-0.994358 0.74522,-2.885651 -0.42923,-3.258405 -0.57689,-0.183098 -1.59369,-0.920452 -2.25956,-1.63856 -1.28355,-1.384246 -1.50925,-1.272384 -2.05753,1.019729 -0.30487,1.274549 -0.16046,1.505903 1.24595,1.996184 0.87494,0.305003 1.47671,0.668632 1.33728,0.808074 -0.26564,0.26563 0.76823,1.639028 1.2594,1.672988 0.15621,0.0108 0.56287,-0.25919 0.90369,-0.60001 z m 22.08741,-4.854827 c 2.43861,-1.157193 2.01951,-1.860139 -1.22383,-2.052708 -3.04163,-0.180588 -3.88805,-0.533502 -3.39678,-1.416283 0.18665,-0.335393 -0.0235,-0.261244 -0.46693,0.164781 -0.67288,0.646428 -1.15996,2.828699 -0.94309,4.225339 0.0931,0.599595 4.12312,-0.01595 6.03063,-0.921129 z m 11.101,-2.329516 c 0.17848,-0.288788 0.21632,-1.090986 0.0841,-1.78267 -0.19472,-1.018592 -0.54792,-1.254481 -1.85849,-1.241179 -2.54946,0.02588 -3.87647,1.649172 -2.77897,3.399449 0.42978,0.68541 4.08391,0.383985 4.55336,-0.3756 z m -39.32314,-5.413778 c -0.52351,-0.630801 -1.72443,-0.680462 -2.30939,-0.09551 -0.17324,0.17324 -0.059,0.79328 0.25386,1.377864 0.53483,0.999346 0.62882,1.011523 1.5723,0.203686 0.70572,-0.604253 0.8491,-1.045197 0.48323,-1.486043 z m 10.56774,-1.386936 c 0.1748,0.174799 0.31782,0.033 0.31782,-0.315119 0,-0.348117 0.23237,-0.48932 0.51639,-0.313787 0.28402,0.175533 0.51639,0.03433 0.51639,-0.313787 0,-0.348117 0.14675,-0.486195 0.3261,-0.306841 0.17935,0.179354 0.81839,0.05203 1.42008,-0.282933 0.6017,-0.334964 1.21018,-0.630378 1.35219,-0.656476 2.16205,-0.39735 3.61476,-0.950501 3.61476,-1.376407 0,-0.29184 0.30876,-0.412129 0.68615,-0.267317 0.37738,0.144818 1.82973,0.04522 3.22746,-0.221316 1.39772,-0.266542 4.38485,-0.500995 6.63806,-0.521006 4.04,-0.03588 5.97294,-0.624294 5.97294,-1.818229 0,-1.063348 -4.25116,-4.297638 -6.42751,-4.890061 -2.96262,-0.806453 -9.72813,-0.202452 -12.44065,1.11065 -2.4427,1.182496 -7.16699,5.656478 -8.31294,7.872496 -0.40806,0.789097 -0.83567,2.377065 -0.95025,3.528815 l -0.20833,2.094097 1.71676,-1.820299 c 0.94422,-1.001165 1.85978,-1.677279 2.03458,-1.50248 z m 14.51865,1.694867 c 0.19271,-0.311798 -0.46016,-0.502012 -1.6478,-0.480096 -1.57072,0.02898 -1.7589,0.125695 -0.93417,0.480096 1.41931,0.609893 2.20504,0.609893 2.58197,0 z M 145.62314,74.907625 c 0,-0.609273 -1.00715,-1.261034 -1.37705,-0.891136 -0.3699,0.369903 0.28186,1.377053 0.89113,1.377053 0.26726,0 0.48592,-0.218662 0.48592,-0.485917 z m 2.58197,-3.923883 c 0,-0.729566 -4.29,-4.3689 -5.15001,-4.3689 -1.10032,0 -1.93261,1.902633 -1.16714,2.668105 0.27421,0.274215 1.2849,0.618604 2.24597,0.765311 0.96107,0.146713 1.96816,0.479906 2.23798,0.740437 0.52995,0.511711 1.8332,0.650373 1.8332,0.195047 z m 14.45903,-2.733651 c 0,-0.726694 -0.58131,-1.061528 -1.3385,-0.770968 -0.39663,0.1522 -0.59257,0.484755 -0.43543,0.739009 0.36042,0.583184 1.77393,0.608648 1.77393,0.03196 z m -21.64631,-1.635249 c 0.26078,0 0.47416,-0.813321 0.47416,-1.80738 0,-1.269498 -0.23261,-1.807379 -0.7816,-1.807379 -0.89634,0 -2.91935,-1.050867 -3.45058,-1.792425 -0.19757,-0.275791 -0.49911,-0.36155 -0.67008,-0.190574 -0.17098,0.170976 -0.009,0.629001 0.35922,1.017833 0.36854,0.388833 0.73571,1.511232 0.81592,2.49422 0.1535,1.88105 0.94063,2.761317 2.09107,2.338477 0.37825,-0.139025 0.9011,-0.252772 1.16189,-0.252772 z m -6.19002,-7.83738 c 0.31199,-0.58296 0.45579,-1.788466 0.31955,-2.678904 -0.32902,-2.150374 1.03649,-4.451933 2.85896,-4.818785 0.78105,-0.157219 1.42009,-0.481891 1.42009,-0.721492 0,-0.239601 0.30404,-0.318965 0.67565,-0.176366 0.37161,0.1426 1.22049,-0.213259 1.88639,-0.790798 1.07641,-0.933559 1.91702,-1.05007 7.57621,-1.05007 7.82921,0 10.72367,-0.851439 10.32051,-3.035897 -0.13738,-0.744399 -0.40179,-2.27616 -0.58757,-3.403914 -0.28307,-1.718326 -0.42178,-1.900365 -0.85635,-1.12383 -0.46627,0.833177 -1.04766,0.892466 -5.76465,0.587872 -5.86286,-0.378586 -7.19832,-0.634379 -6.78696,-1.299967 0.15482,-0.250507 0.133,-1.047098 -0.0485,-1.770201 -0.37524,-1.4951 -1.58713,-1.704105 -3.08858,-0.532663 -0.55131,0.430139 -0.77001,0.751187 -0.48599,0.713439 1.47016,-0.195392 1.86637,0.13431 1.71258,1.425117 -0.1282,1.075953 -0.60845,1.527922 -2.22898,2.097695 -1.13606,0.399437 -2.99508,0.616859 -4.13115,0.483159 -1.13607,-0.133699 -1.65892,-0.131113 -1.16189,0.0057 1.26896,0.349416 1.17376,0.660616 -1.2282,4.014923 -2.72532,3.805865 -3.34634,6.207369 -1.87219,7.239897 0.95939,0.671986 0.99375,0.892574 0.38096,2.445265 -0.37046,0.938657 -0.86869,1.927408 -1.10719,2.197224 -0.68051,0.769875 -0.51712,1.090734 0.5982,1.174749 0.56987,0.04293 1.28581,-0.396817 1.59909,-0.9822 z m -6.50753,-1.968194 c 0.18091,-0.292723 -0.0264,-0.379295 -0.48592,-0.202949 -0.89461,0.343295 -1.05829,0.713428 -0.31549,0.713428 0.26725,0 0.62789,-0.229716 0.80141,-0.510479 z m 3.16821,-16.426307 c -0.81565,-0.101728 -1.68685,0.0189 -1.93601,0.268057 -0.25976,0.259761 0.37288,0.338665 1.48299,0.184961 1.78217,-0.246755 1.81817,-0.282754 0.45302,-0.453018 z m 0.7084,-5.784555 c 0,-0.284017 -0.10247,-0.516393 -0.22772,-0.516393 -0.12525,0 -0.37134,0.232376 -0.54687,0.516393 -0.17553,0.284017 -0.0731,0.516394 0.22772,0.516394 0.30078,0 0.54687,-0.232377 0.54687,-0.516394 z m 22.07585,-4.43052 c 1.25239,-0.25514 1.631,-1.766208 0.44254,-1.766208 -0.39563,0 -0.85935,-0.364865 -1.03048,-0.81081 -0.45364,-1.182172 -2.63913,-0.743848 -2.64102,0.529685 -0.002,1.174531 -2.09627,1.910933 -3.47254,1.22089 -0.67629,-0.339078 -0.82179,-0.264133 -0.60154,0.309831 0.41385,1.078489 3.48024,1.295403 7.30304,0.516612 z m -16.30282,-2.13609 c 0.5236,-0.630904 0.47437,-0.897911 -0.26528,-1.438758 -1.06276,-0.777107 -2.92578,-0.436028 -2.92578,0.535647 0,2.177811 1.72741,2.666692 3.19106,0.903111 z"
     id="path17" />
</svg>
